<?xml version="1.0" encoding="UTF-8" standalone="no"?>
<svg
   width="1.5016254in"
   height="1.5042297in"
   viewBox="0 0 450.48761 451.26852"
   version="1.1"
   id="svg1"
   xml:space="preserve"
   xmlns:xlink="http://www.w3.org/1999/xlink"
   xmlns="http://www.w3.org/2000/svg"
   xmlns:svg="http://www.w3.org/2000/svg"><defs
     id="defs1" /><path
     style="display:inline;fill:#0000ff;stroke-width:0.506557"
     d="m 178.95571,338.7495 c 0,-1.12993 -28.68897,-117.09023 -29.7482,-120.24166 -1.05161,-3.12881 7.86663,-7.2497 17.78041,-8.21589 10.37599,-1.01124 11.54627,-3.60146 3.95145,-8.74575 -4.11807,-2.78934 -6.815,-3.24821 -15.84935,-2.69666 l -10.88688,0.66463 -2.54514,-9.83898 c -1.39982,-5.41144 -1.99766,-10.38282 -1.3285,-11.04752 0.66915,-0.6647 18.39451,-6.15894 39.38967,-12.2094 20.99516,-6.05047 54.5627,-15.77958 74.59452,-21.62024 20.03182,-5.84065 36.56784,-10.38767 36.74672,-10.10445 0.17886,0.2832 9.27878,36.33219 20.22204,80.10883 17.30463,69.22416 19.57922,79.75527 17.45898,80.83257 -1.34081,0.68118 -34.30884,10.44794 -73.2623,21.70375 -38.95347,11.25591 -72.10672,20.90268 -73.67393,21.43727 -1.56723,0.53469 -2.84949,0.52275 -2.84949,-0.0265 z m 72.56266,-64.6555 c 23.2403,-11.34687 28.94828,-44.0439 10.97617,-62.87501 -8.24689,-8.64107 -14.64579,-11.46076 -25.8775,-11.40301 -16.49627,0.0848 -29.36982,10.3655 -34.03791,27.18235 -2.82643,10.18228 -2.81086,13.06479 0.128,23.7011 2.63933,9.55229 11.10072,19.97217 19.37671,23.86172 7.18652,3.37751 22.04287,3.14173 29.43453,-0.46715 z M 53.366467,297.85573 c -1.46965,-1.19907 -2.67212,-2.59323 -2.67212,-3.09817 0,-0.50492 3.60735,-2.18791 8.01633,-3.74 11.50133,-4.04878 25.09859,-11.57159 34.35575,-19.00767 10.616803,-8.52827 10.281723,-11.13206 -0.48035,-3.73275 -9.79749,6.73607 -24.98339,13.92756 -37.87163,17.93464 -8.68593,2.70053 -9.04989,2.68742 -11.95118,-0.43085 -2.97193,-3.1942 -2.93155,-3.22928 5.9049,-5.12732 11.38563,-2.44561 32.85092,-11.92907 39.68904,-17.53479 7.16127,-5.87065 5.48411,-6.74616 -3.53704,-1.8464 -8.55473,4.64642 -27.82246,11.36533 -40.81295,14.23203 -8.66856,1.91295 -9.10612,1.8429 -12.71435,-2.03516 l -3.73683,-4.01629 8.89706,-1.0142 c 13.5127,-1.54036 32.2033,-7.11325 43.13787,-12.86222 9.49785,-4.9936 16.107,-11.20605 33.568113,-31.5532 8.10883,-9.4491 20.23763,-19.06764 24.04394,-19.06764 1.06158,0 2.75145,2.94616 3.75519,6.547 l 1.82506,6.54702 -7.56286,8.63326 c -4.1596,4.74831 -11.09706,14.9415 -15.41661,22.65151 -12.5868,22.46627 -26.644043,35.1823 -50.659633,45.82616 -12.8321,5.68722 -12.23517,5.58532 -15.7777,2.69504 z"
     id="path59"
     mask="none" /><g
     id="g617"
     transform="translate(-142.72489,-476.31851)"><g
       id="g748"
       style="stroke:#000000;stroke-width:2.7;stroke-dasharray:none;stroke-opacity:1"
       transform="translate(12.267539)"><path
         style="opacity:1;fill:#ffe0cb;fill-opacity:1;stroke:#000000;stroke-width:0.864;stroke-dasharray:none;stroke-opacity:1;paint-order:stroke fill markers"
         d="m 130.25,263.13881 c 0,-0.26741 -0.0876,-0.94801 -0.19468,-1.51245 -0.72134,-3.80259 -3.85572,-8.80326 -7.61781,-12.15364 -2.28449,-2.03448 -4.70251,-3.45258 -7.12501,-4.1786 -1.00011,-0.29974 -1.33316,-0.3377 -3,-0.34199 -1.79792,-0.005 -1.92382,0.012 -3.0625,0.40352 -1.92571,0.66219 -3.25748,1.51351 -4.81328,3.07683 -0.90415,0.90851 -2.12225,2.45672 -2.47877,3.1505 -0.34945,0.68001 -0.37623,1.6053 -0.0939,3.24341 0.29401,1.70573 0.31825,2.27469 0.12639,2.96565 -0.11665,0.42009 -0.22119,0.51864 -0.84306,0.79482 -0.39044,0.1734 -1.02349,0.34422 -1.406776,0.37959 -0.644633,0.0595 -0.729935,0.0353 -1.137669,-0.32271 -1.054492,-0.92585 -1.899136,-4.21198 -2.414509,-9.39374 -0.355363,-3.57295 -0.377937,-6.17191 -0.0732,-8.42707 0.818263,-6.05541 2.86223,-14.49295 3.811798,-15.73518 0.165086,-0.21596 0.210196,-0.2151 1.153636,0.0222 2.51637,0.63296 6.47211,0.91762 7.38697,0.53158 0.5441,-0.22959 0.92819,-0.87739 0.92819,-1.56546 0,-0.61956 -0.22407,-1.12176 -0.78612,-1.76189 -0.21208,-0.24156 -0.33253,-0.43919 -0.26765,-0.43919 0.0649,0 0.56288,0.11753 1.10669,0.26118 1.31892,0.3484 3.1704,0.37697 3.83395,0.0592 0.59432,-0.28465 1.05993,-0.8332 1.16,-1.36662 0.27475,-1.46452 -1.49282,-3.6131 -4.15057,-5.04524 l -0.97963,-0.52789 0.50735,-0.003 c 0.54359,-0.003 1.67743,-0.59697 2.34785,-1.22994 1.13861,-1.07502 1.11306,-2.62493 -0.0654,-3.96713 -0.42903,-0.48863 -1.61968,-1.3415 -2.26386,-1.62161 -0.22051,-0.0959 -0.32524,-0.17654 -0.23273,-0.17923 0.33292,-0.01 0.92801,-0.55273 1.15612,-1.05502 0.72459,-1.5955 -0.39589,-3.78489 -2.43279,-4.75365 -1.393,-0.66252 -3.19975,-1.08935 -7.95403,-1.87911 -2.849623,-0.47336 -2.63247,-0.40619 -2.493662,-0.77129 0.178538,-0.46959 0.142751,-2.67119 -0.07156,-4.40224 -0.43428,-3.50785 -1.833594,-10.18617 -3.670687,-17.51858 -0.542584,-2.16563 -0.971009,-3.95453 -0.952054,-3.97534 0.01895,-0.0208 8.079653,0.002 17.912663,0.0512 l 17.8782,0.0891 -0.28579,0.45272 c -0.90491,1.43346 -1.54671,4.59946 -1.96531,9.69482 -0.22446,2.73212 -0.22413,16.20841 4.6e-4,19.0625 0.16141,2.0512 0.44805,4.45345 0.59004,4.94489 0.0555,0.19199 -0.003,0.29284 -0.23197,0.39696 -0.50707,0.23103 -1.95729,1.65919 -2.70386,2.66271 -2.26716,3.04745 -3.18767,6.8274 -2.07288,8.51197 0.50105,0.75714 1.21014,1.02851 2.49251,0.95387 1.56471,-0.0911 3.3507,-0.7956 5.81171,-2.29262 0.88439,-0.53796 1.22316,-0.68476 1.36857,-0.59305 0.68282,0.43072 0.32482,2.62509 -0.6417,3.93337 -0.77974,1.05545 -0.51705,1.99442 1.46337,5.2308 1.76994,2.8924 2.19694,3.91861 2.19694,5.27999 0,0.84328 -0.19195,1.2855 -0.90982,2.09611 -0.7465,0.84295 -0.86375,1.20478 -0.7177,2.21484 0.0674,0.46621 0.12368,1.24662 0.12504,1.73425 0.003,1.19751 -0.30791,1.76813 -1.48631,2.72477 -1.19754,0.97219 -1.35759,1.31087 -1.16105,2.45699 0.23554,1.37357 0.20322,1.6366 -0.26929,2.1904 -0.71164,0.8341 -0.86314,1.24134 -0.80596,2.16649 0.063,1.01921 0.41538,1.7633 1.60434,3.3877 2.63465,3.59954 3.15621,4.49388 3.3635,5.76751 0.0653,0.40143 0.0632,0.93017 -0.005,1.29838 -0.2223,1.1953 -0.68081,1.85428 -2.52947,3.63537 -0.95523,0.92031 -1.78655,1.6733 -1.84738,1.6733 -0.0608,0 -0.11059,-0.21879 -0.11059,-0.48619 z"
         id="path737"
         transform="scale(3.1249986)" /><path
         style="opacity:1;fill:#ffe6d5;fill-opacity:1;stroke:#000000;stroke-width:0.864;stroke-dasharray:none;stroke-opacity:1;paint-order:stroke fill markers"
         d="m 114.6875,285.99261 c -6.94375,-0.19135 -13.39987,-0.35233 -14.34694,-0.35775 l -1.721946,-0.01 0.677328,-0.79843 c 0.476686,-0.56191 0.698898,-0.94145 0.750148,-1.28125 0.04,-0.26555 0.52588,-5.8547 1.07964,-12.42032 0.60045,-7.11928 1.09023,-12.29067 1.21348,-12.8125 0.26018,-1.10158 0.25512,-1.9103 -0.0222,-3.54716 -0.33165,-1.95764 -0.24829,-2.56459 0.50332,-3.66471 0.7674,-1.12323 2.45984,-2.91416 3.47541,-3.67768 3.30308,-2.4833 7.20629,-2.74181 11.26676,-0.74619 1.78122,0.87542 3.39981,2.04613 5.10017,3.68889 2.26799,2.19116 4.07551,4.57771 5.36356,7.08174 0.54127,1.05227 0.58308,1.20668 0.74176,2.74011 0.121,1.1693 0.15195,2.85189 0.11035,6 -0.0318,2.40625 -0.0581,6.03437 -0.0584,8.0625 -5.9e-4,3.89948 0.10107,4.87972 0.68083,6.56482 0.21538,0.62602 0.2492,1.05244 0.2492,3.14225 v 2.41793 l -1.21875,-0.0172 c -0.67031,-0.009 -6.9,-0.1738 -13.84375,-0.36514 z"
         id="path738"
         transform="scale(3.1249986)" /><path
         style="opacity:1;fill:#ffe0cb;fill-opacity:1;stroke:#000000;stroke-width:0.864;stroke-dasharray:none;stroke-opacity:1;paint-order:stroke fill markers"
         d="m 127.49743,206.92708 c -10e-4,-0.13177 -0.0829,-1.14188 -0.18108,-2.2447 -0.45531,-5.11421 -0.54356,-14.14545 -0.19114,-19.55929 0.253,-3.88648 0.71384,-7.08273 1.26341,-8.76259 0.45284,-1.38417 0.50219,-1.29541 0.42508,0.7645 -0.84562,22.58989 -1.14777,29.87574 -1.24293,29.9709 -0.0389,0.0389 -0.0719,-0.037 -0.0733,-0.16882 z"
         id="path739"
         transform="scale(3.1249986)" /><path
         style="opacity:1;fill:#ffe0cb;fill-opacity:1;stroke:#000000;stroke-width:0.864;stroke-dasharray:none;stroke-opacity:1;paint-order:stroke fill markers"
         d="m 129.52431,279.07491 c -0.37221,-1.96742 -0.42677,-3.66092 -0.26821,-8.32491 0.0853,-2.50938 0.12969,-5.85625 0.0986,-7.4375 -0.0531,-2.70244 -0.045,-2.84124 0.1349,-2.3125 0.16147,0.47454 0.19744,1.7158 0.23002,7.9375 0.0212,4.05625 0.0227,8.19062 0.003,9.1875 l -0.0354,1.8125 z"
         id="path740"
         transform="scale(3.1249986)" /><path
         style="opacity:1;fill:#ffe6d5;fill-opacity:1;stroke:#000000;stroke-width:0.864;stroke-dasharray:none;stroke-opacity:1;paint-order:stroke fill markers"
         d="m 127.51702,206.36273 c -0.41475,-4.86713 -0.44325,-5.69207 -0.44657,-12.92523 -0.003,-6.24871 0.0336,-7.88582 0.21832,-9.8125 0.35696,-3.72216 0.8319,-6.51495 1.28479,-7.55484 0.15976,-0.36684 0.16685,-0.34648 0.17129,0.49234 0.005,0.88584 -0.57728,16.38287 -0.93415,24.875 -0.17976,4.27754 -0.24938,5.44509 -0.29368,4.92523 z"
         id="path741"
         transform="scale(3.1249986)" /><path
         style="opacity:1;fill:#ffe6d5;fill-opacity:1;stroke:#000000;stroke-width:0.864;stroke-dasharray:none;stroke-opacity:1;paint-order:stroke fill markers"
         d="m 104.6875,225.29101 c -4.10493,-0.50938 -7.470849,-1.72319 -9.040705,-3.26023 -1.065521,-1.04325 -1.209618,-1.36759 -1.207688,-2.71828 0.0018,-1.25465 0.218146,-1.85587 0.974357,-2.70762 l 0.406291,-0.45762 1.933872,0.78734 c 1.06363,0.43304 2.861993,1.29034 3.996373,1.9051 1.13437,0.61477 2.65312,1.38596 3.375,1.71376 2.15254,0.97747 3.66114,2.29209 3.82774,3.33557 0.0825,0.51678 -0.35532,1.24257 -0.82915,1.37446 -0.32226,0.0897 -2.77657,0.10936 -3.43609,0.0275 z"
         id="path742"
         transform="scale(3.1249986)" /><path
         style="opacity:1;fill:#ffe6d5;fill-opacity:1;stroke:#000000;stroke-width:0.864;stroke-dasharray:none;stroke-opacity:1;paint-order:stroke fill markers"
         d="m 110.01254,221.8066 c -1.48435,-0.32199 -2.74603,-0.81988 -5.16569,-2.03848 -3.6349,-1.83064 -6.26558,-3.05674 -7.698453,-3.58808 -1.107311,-0.41062 -1.336471,-0.54516 -1.625,-0.95406 -0.184743,-0.26181 -0.55156,-0.77868 -0.815148,-1.14858 -0.79813,-1.12006 -0.768617,-2.279 0.08558,-3.36086 0.163962,-0.20767 0.211779,-0.19586 0.794267,0.19613 1.389977,0.93538 5.911494,2.62255 8.286904,3.09219 1.52937,0.30237 3.83428,1.0455 5.20019,1.67658 2.81205,1.29925 4.91354,3.374 4.92206,4.85942 0.007,1.22763 -1.68405,1.7648 -3.98471,1.26574 z"
         id="path743"
         transform="scale(3.1249986)" /><path
         style="opacity:1;fill:#ffe6d5;fill-opacity:1;stroke:#000000;stroke-width:0.864;stroke-dasharray:none;stroke-opacity:1;paint-order:stroke fill markers"
         d="m 108.25,214.60345 c -0.30938,-0.0659 -1.15313,-0.27902 -1.875,-0.47366 -0.72188,-0.19463 -1.79063,-0.44675 -2.375,-0.56027 -2.25733,-0.43851 -6.689356,-2.10602 -8.119112,-3.05474 -0.576549,-0.38257 -0.688926,-0.51972 -0.729065,-0.88978 -0.0261,-0.24063 -0.183437,-0.82699 -0.349639,-1.30304 C 94.635983,207.84591 94.5,207.29966 94.5,207.10808 c 0,-0.42165 0.431833,-0.85808 0.849038,-0.85808 0.166044,0 1.716375,0.27971 3.44518,0.62159 3.956862,0.78247 5.143432,0.97175 6.740802,1.07527 2.52944,0.16392 4.65793,0.93661 5.92407,2.15058 0.7993,0.76636 1.0843,1.30352 1.08693,2.04865 0.003,0.77572 -0.46981,1.45286 -1.4699,2.10632 -0.6853,0.44778 -0.83672,0.49625 -1.51258,0.4842 -0.41307,-0.007 -1.00417,-0.0673 -1.31354,-0.13316 z"
         id="path744"
         transform="scale(3.1249986)" /><path
         style="opacity:1;fill:#ffe6d5;fill-opacity:1;stroke:#000000;stroke-width:0.864;stroke-dasharray:none;stroke-opacity:1;paint-order:stroke fill markers"
         d="m 107.9375,207.79385 c -0.34375,-0.0963 -1.36867,-0.22718 -2.2776,-0.29082 -1.88129,-0.13172 -1.93907,-0.14083 -6.8474,-1.08005 -4.093671,-0.78332 -3.82238,-0.65654 -4.51614,-2.11048 -0.563667,-1.1813 -0.856432,-2.39285 -0.685943,-2.83864 0.221219,-0.57844 1.010396,-0.88161 2.452083,-0.94198 1.090546,-0.0457 1.712416,0.029 4.875,0.58571 5.71775,1.00642 7.32557,1.50634 8.43839,2.62373 0.71195,0.71489 1.03094,1.37399 1.09854,2.26989 0.0694,0.92022 -0.18921,1.42816 -0.88897,1.74587 -0.6015,0.27309 -0.78958,0.27728 -1.64796,0.0368 z"
         id="path745"
         transform="scale(3.1249986)" /><path
         style="opacity:1;fill:#ffe6d5;fill-opacity:1;stroke:#000000;stroke-width:0.864;stroke-dasharray:none;stroke-opacity:1;paint-order:stroke fill markers"
         d="m 132.43713,225.49937 c -1.05626,-1.80169 -1.2759,-2.69389 -0.80924,-3.28715 0.58702,-0.74628 1.03918,-1.97486 1.09749,-2.982 0.0653,-1.12856 -0.10757,-1.69162 -0.57391,-1.86892 -0.40398,-0.15359 -0.60262,-0.0819 -1.75887,0.63528 -2.82757,1.75372 -5.19746,2.57012 -6.5316,2.25006 -0.70832,-0.16992 -1.2754,-0.73067 -1.47848,-1.46197 -0.58116,-2.09275 1.09423,-6.15203 3.54951,-8.60004 1.3176,-1.31369 4.09056,-2.95534 5.70297,-3.37627 1.5947,-0.4163 2.98152,0.008 4.06048,1.24094 0.64696,0.73958 1.92209,3.16677 2.30533,4.3882 0.33962,1.08237 0.47237,3.39608 0.26363,4.59473 -0.33428,1.91957 -1.51475,4.66992 -2.92835,6.82271 -0.76315,1.1622 -2.00309,2.64506 -2.21175,2.64506 -0.0553,0 -0.36456,-0.45028 -0.68721,-1.00063 z"
         id="path746"
         transform="scale(3.1249986)" /><path
         style="opacity:1;fill:#ccffaa;fill-opacity:1;stroke:#000000;stroke-width:2.7;stroke-dasharray:none;stroke-opacity:1;paint-order:stroke fill markers"
         d="m 292.80419,520.11695 c -1.42948,-12.13868 -2.76394,-22.95383 -2.96548,-24.03373 -0.34664,-1.85732 -2.70768,-5.89138 5.18665,-7.76533 31.24899,-7.41784 48.09743,-9.9749 77.96661,-9.90535 9.60665,0.0224 46.94446,7.72442 47.5644,8.34436 0.18687,0.18656 2.76127,0.005 1.9019,3.17788 -1.44716,5.34212 -11.771,50.76976 -11.771,51.79548 0,0.25125 -25.93893,0.457 -57.642,0.457 h -57.64203 z"
         id="path747"
         transform="translate(-5.9999699)" /><path
         style="opacity:1;fill:#ff8080;fill-opacity:1;stroke:#000000;stroke-width:2.7;stroke-dasharray:none;stroke-opacity:1;paint-order:stroke fill markers"
         d="m 350.92167,925.26399 c -10.35559,0.002 -34.20063,-3.27622 -35.30974,-4.28928 -0.28143,-0.25688 -2.48398,-26.57252 -2.2557,-26.9398 0.036,-0.0578 22.03811,0.49216 48.89356,1.22238 36.79655,1.00053 49.35051,1.58359 50.94826,2.36625 2.63003,1.28837 5.69384,5.61968 7.22703,10.21687 1.51962,4.55652 3.08868,8.90346 2.3229,9.37675 -1.04738,0.64731 -19.3567,5.1753 -27.76848,6.00646 -7.45606,0.73672 -38.20237,2.03947 -43.66721,2.04031 z"
         id="path748"
         transform="translate(-5.9999699)" /></g><ellipse
       style="fill:none;stroke:#000000;stroke-width:1.51188;stroke-dasharray:none;stroke-opacity:1;paint-order:stroke fill markers"
       id="path4"
       cx="367.9686"
       cy="701.95282"
       rx="224.48778"
       ry="224.8784" /></g><text
     xml:space="preserve"
     style="font-size:59.1628px;font-family:FreeSans;-inkscape-font-specification:FreeSans;text-align:start;writing-mode:lr-tb;direction:ltr;text-anchor:start;fill:#000000;fill-opacity:1;stroke:#000000;stroke-width:3.54977;paint-order:stroke fill markers"
     x="282.41052"
     y="397.92618"
     id="text2"
     transform="scale(1.033368,0.96770947)"><tspan
       id="tspan2"
       style="fill:#000000;fill-opacity:1;stroke-width:3.54977"
       x="282.41052"
       y="397.92618">Š</tspan></text><text
     xml:space="preserve"
     style="font-size:57.8011px;font-family:FreeSans;-inkscape-font-specification:FreeSans;text-align:start;writing-mode:lr-tb;direction:ltr;text-anchor:start;fill:#000000;fill-opacity:1;stroke:#000000;stroke-width:3.46806;paint-order:stroke fill markers"
     x="109.90683"
     y="402.44659"
     id="text1"
     transform="scale(1.0642395,0.93963811)"><tspan
       id="tspan1"
       style="fill:#000000;fill-opacity:1;stroke-width:3.46806"
       x="109.90683"
       y="402.44659">G</tspan></text><text
     xml:space="preserve"
     style="font-size:37.5px;font-family:FreeSans;-inkscape-font-specification:FreeSans;text-align:start;writing-mode:lr-tb;direction:ltr;text-anchor:start;fill:#000000;fill-opacity:1;stroke:#000000;stroke-width:2.25;paint-order:stroke fill markers"
     id="text3"
     transform="translate(-137.25614,-472.41226)"><textPath
       xlink:href="#path3"
       id="textPath3"><tspan
         id="tspan3"
         style="fill:#000000;fill-opacity:1;stroke-width:2.25">TUTORSTVO</tspan></textPath></text><ellipse
     style="fill:none;stroke:none;stroke-width:2.12157;paint-order:stroke fill markers"
     id="path3"
     cx="-268.87668"
     cy="-4.8154273"
     rx="114.65228"
     ry="110.87145"
     transform="rotate(-146.85365)" /></svg>
